<?xml version="1.0" standalone="no"?><!DOCTYPE svg PUBLIC "-//W3C//DTD SVG 1.1//EN" "http://www.w3.org/Graphics/SVG/1.1/DTD/svg11.dtd"><svg t="1551146857657" class="icon" style="" viewBox="0 0 1024 1024" version="1.1" xmlns="http://www.w3.org/2000/svg" p-id="2281" xmlns:xlink="http://www.w3.org/1999/xlink" width="16" height="16"><defs><style type="text/css"></style></defs><path d="M501.623467 102.4l-10.376534 0.955733-20.718933 0.9216-20.718933 2.833067-10.308267 1.877333-10.376533 1.877334-9.4208 1.877333-10.3424 2.833067-18.8416 5.666133-18.8416 5.632-18.8416 7.509333-17.885867 8.533334-17.851733 9.386666-8.533334 4.7104-8.430933 4.7104-8.465067 5.666134-8.533333 4.7104-15.9744 12.219733-7.509333 5.632-8.533334 5.666133-14.097066 13.175467-14.097067 14.1312-7.543467 6.587733-6.587733 7.509334-6.5536 6.621866-6.656 7.509334-11.298133 16.042666-12.219734 15.9744-10.376533 16.964267-4.7104 8.4992-4.676267 8.465067-9.454933 17.885866-8.430933 17.885867-6.587734 18.8416-6.587733 18.807467-5.700267 18.8416-4.676266 19.797333-3.754667 20.6848-2.833067 20.718933-0.989866 20.718934L102.4 512v10.3424l0.887467 10.376533 0.989866 21.640534 2.833067 19.797333 1.877333 10.3424 1.877334 10.376533 1.8432 9.386667 2.833066 10.376533 5.700267 18.807467 6.587733 19.797333 6.587734 17.885867 8.430933 18.8416 9.454933 16.930133 4.676267 9.4208 4.7104 8.465067 5.666133 8.4992 4.7104 7.509333 12.219734 16.042667 5.666133 8.430933 5.632 7.543467 13.2096 15.086933 14.1312 14.097067 6.587733 6.587733 7.509334 6.621867 6.621866 6.587733 7.509334 6.587734 16.008533 12.219733 15.9744 11.298133 16.9984 10.376534 8.430933 4.7104 8.533334 5.666133 17.851733 8.465067 17.885867 8.465066 18.8416 7.509334 18.8416 6.621866 18.8416 4.676267 19.7632 4.7104 20.6848 3.754667 20.718933 2.8672 20.718933 1.877333h37.6832l16.042667-0.955733 15.9744-1.877334 8.533333-0.955733 7.4752-0.9216 16.008534-2.833067 15.086933-3.754666 16.008533-3.754667 15.0528-4.7104 14.097067-5.666133 15.121067-5.666134 14.1312-5.632 14.097066-6.587733 14.1312-7.509333 13.175467-7.543467 13.175467-8.533333 12.253866-8.430934 12.288-9.4208 12.1856-9.4208 11.264-10.3424 11.332267-10.376533 11.332267-11.264 10.308266-10.376533 10.410667-12.253867 9.4208-12.253867 8.465067-12.219733 9.386666-12.219733 7.543467-13.2096 8.465067-14.1312 6.621866-13.175467 6.5536-14.1312 6.587734-14.097067 5.666133-15.086933H839.68l8.465067 19.797333-88.507734 128.989867H275.626667L180.565333 682.427733l209.032534-539.5456 118.647466 282.487467 112.981334-285.2864 108.305066 253.269333h175.172267l-5.666133-15.0528-5.632-16.008533-5.666134-15.0528-7.509333-14.165333-6.621867-15.018667-8.465066-14.165333-8.533334-13.175467-8.430933-13.175467-10.308267-13.175466-4.7104-6.621867-4.7104-6.5536L818.005333 238.933333l-11.264-11.264-11.298133-11.332266-12.288-11.298134-12.219733-10.3424-12.219734-9.454933-13.2096-9.386667-13.175466-9.454933-14.1312-8.465067-14.1312-7.509333-14.1312-7.509333-15.018667-6.621867-15.0528-6.587733-7.543467-2.833067-7.5776-2.833067-15.9744-4.676266-16.042666-4.7104-15.9744-3.7888-16.964267-2.833067-16.008533-2.798933-16.964267-0.955734L528.930133 102.4h-27.306666z m-23.552 575.317333h226.986666l-115.848533-280.576-111.138133 280.576z m-232.5504 0h226.952533l-115.848533-280.576-111.104 280.576z m493.397333-261.802666l7.543467 16.964266h167.594666l-3.754666-16.930133h-171.349334z m16.964267 39.594666l6.587733 16.930134h157.252267l-1.877334-16.930134h-161.962666z m16.964266 39.560534l6.587734 16.930133H921.6v-16.930133h-148.753067z m16.008534 39.5264l7.509333 16.930133h123.357867l1.877333-16.930133h-132.778667z m16.930133 39.560533l7.509333 16.930133h100.795734l2.798933-16.930133h-111.104z m16.964267 39.560533l7.509333 15.9744h74.410667l4.7104-15.9744h-86.6304z" fill="#E50113" p-id="2282"></path></svg>