<?xml version="1.0" standalone="no"?><!DOCTYPE svg PUBLIC "-//W3C//DTD SVG 1.1//EN" "http://www.w3.org/Graphics/SVG/1.1/DTD/svg11.dtd"><svg t="1551150495579" class="icon" style="" viewBox="0 0 1024 1024" version="1.1" xmlns="http://www.w3.org/2000/svg" p-id="7895" xmlns:xlink="http://www.w3.org/1999/xlink" width="16" height="16"><defs><style type="text/css"></style></defs><path d="M172.29252259 615.53726805c-3.7143414-0.30952895-9.28585409-3.7143414-13.61925218-7.11915505-39.00058525-38.07199961 11.14302418-82.02503965 68.71531641-107.4063727v-72.42965903c13.61925219 8.66679618 21.04793498 8.97632514 21.35746393 10.21443974L293.00861974 395.15300871l-14.85736678-37.76247064c129.38289334-44.57209674 181.69320182-61.90569031 286.93287669-79.54881285l-18.88123592-17.64312254 30.64331681-17.64312133c70.88201546 23.21463402 137.74016178 29.40520342 126.28760985 88.83466574 2.78575574-40.23869865-47.04832475-55.71512214-123.50185289-77.07258486l-14.85736558 8.97632514 28.16708881 23.21463403c-126.28760864 21.66699167-203.66972245 46.42926804-295.90920184 78.31069945l12.69066653 32.81001586-46.42926805 45.5006824c7.73821174 2.16669904 88.52513799 29.09567446 172.40734895-29.40520342 0 0 1.54764235-1.2381134 1.54764235-1.54764235-2.476228-4.02387035-8.04773949-8.66679618-15.16689453-14.85736557 24.45274741 1.54764235 40.54822761 23.21463402 37.76247185 45.81021134h-11.45255313c0.92858565-7.42868278-0.92858565-15.16689454-3.40481245-20.42887828-65.31050397 47.66738144-140.52591753 54.47700753-204.90783706 31.88143142v56.02464987c-31.26237351 11.14302418-86.97749565 45.50068239-86.35843773 78.62022721 3.0952847 16.71453689 11.14302418 22.28604837 18.57170697 26.30991872z" fill="#231F20" p-id="7896"></path><path d="M435.70123632 601.29895917c-69.64390207 35.28624386-136.50204839 63.45333267-239.26549406 67.47720302-134.02582038-2.78575574-155.07375536-91.92995043-91.31089495-184.78848774 59.73899127-93.78712174 154.76422641-178.59791713 306.1236416-231.52728231 43.95304004-15.47642228 108.02543062-33.11954481 170.55017764-34.04813045 89.45372365-0.92858565 176.12169034 26.92897541 170.55017763 112.66835766-3.40481244 65.62003171-97.81099088 158.16904006-147.95460031 224.71765621-21.35746272 29.09567446-25.07180532 47.97691039 11.45255193 46.42926805 132.47817804-8.66679618 252.5752185-54.47700753 364.00546155-102.14438898-75.52494251 51.07219509-465.22126609 244.21795006-466.76890722 112.66835646 0.30952895-16.71453689 8.35726845-34.35765821 21.04793376-53.23889291 12.38113758-18.88123594 29.40520342-38.38152855 47.04832596-58.50087788 26.61944646-30.33378785 92.54900714-102.76344688 114.8350555-146.40695919 37.14341395-82.3345686-46.42926804-86.35843894-118.5493969-111.73977201l-30.64331802 17.64312254 18.88123593 17.64312132c-105.23967366 17.64312132-157.24045441 34.9767149-286.9328755 79.54881285L293.00861974 395.15300871l-44.26256899 43.95304005c-1.2381134-1.2381134-7.73821174-1.54764235-21.35746393-10.21443853v72.4296578C169.81629459 526.7026011 119.67268515 570.65564236 158.67327041 608.72764196c4.02387035 3.40481244 9.90491079 6.50009714 13.61925218 7.11915384 70.88201546 39.92917091 264.02777042-14.54783783 263.40871373-14.54783663z" fill="#FF7300" p-id="7897"></path><path d="M972.11404561 752.03931523V738.729592h5.88104165c1.2381134 0 2.16669904 0 2.78575575 0.30952895 0.61905669 0.30952895 1.2381134 0.61905669 1.54764234 1.2381134 0.30952895 0.61905669 0.61905669 1.2381134 0.6190567 1.8571713 0 0.92858565-0.30952895 1.85717131-0.92858564 2.47622679-0.61905669 0.61905669-1.54764235 0.92858565-2.78575575 1.2381146 0.61905669 0.30952895 0.92858565 0.30952895 0.92858565 0.6190567 0.61905669 0.61905669 0.92858565 0.92858565 1.54764235 1.85717009l2.47622679 3.7143414h-2.16669904l-1.8571701-2.78575574c-0.61905669-0.92858565-0.92858565-1.54764235-1.23811461-1.85717009l-0.92858444-0.92858566c-0.30952895-0.30952895-0.61905669-0.30952895-0.92858565-0.30952896h-3.09528469v5.88104045h-1.85717131z m1.54764235-7.73821054h3.71434139c0.92858565 0 1.54764235 0 1.85717131-0.30952895 0.61905669-0.30952895 0.92858565-0.30952895 0.92858565-0.92858565 0.30952895-0.30952895 0.30952895-0.61905669 0.30952775-1.2381134s-0.30952895-1.2381134-0.61905671-1.54764234c-0.30952895-0.30952895-1.2381134-0.61905669-2.16669905-0.6190567h-4.33339808v4.64292704z" fill="#FF7300" p-id="7898"></path><path d="M967.16159082 745.22968914c0-5.57151269 4.64292705-10.21443854 10.21443853-10.21443854 5.57151269 0 10.21443854 4.64292705 10.21443975 10.21443854 0 5.57151269-4.64292705 10.21443854-10.21443975 10.21443975-5.57151269 0-10.21443854-4.64292705-10.21443853-10.21443975z m10.21443853 12.07160984c6.50009714 0 12.07160983-5.26198374 12.07160984-12.07160984 0-6.50009714-5.26198374-12.07160983-12.07160984-12.07160863-6.50009714 0-12.07160983 5.26198374-12.07160862 12.07160863 0 6.50009714 5.57151269 12.07160983 12.07160862 12.07160984zM238.22208326 762.25375498h26.30991872v67.47720301h-26.30991872zM237.60302657 733.15808051h27.54803211v18.57170698h-27.54803211zM195.81668435 733.15808051h25.38133307v96.57287748h-25.38133307zM871.20777004 829.73095799v-67.47720301h9.90491078v9.90490957c2.78575574-3.40481244 4.95245479-6.50009714 8.66679619-8.35726723 3.40481244-2.16669904 7.11915383-3.0952847 12.07160984-3.09528469s8.97632514 0.92858565 12.69066653 3.09528469c2.78575574 2.16669904 4.95245479 4.95245479 6.50009835 8.35726723 5.57151269-7.73821174 12.69066653-11.45255314 21.35746272-11.45255192 6.50009714 0 11.45255314 1.54764235 15.47642228 5.57151149 3.40481244 3.40481244 4.95245479 9.28585409 4.95245601 17.02406583v46.1197391h-11.45255316v-42.4053977c0-4.33339809 0-7.42868278-0.92858564-9.59538305-0.61905669-2.16669904-2.78575574-4.33339809-4.3333981-5.26198375-1.85717131-0.92858565-4.02387035-1.54764235-6.80962609-1.54764114-4.95245479 0-9.28585409 0.92858565-12.38113758 4.3333981-2.78575574 3.40481244-4.02387035 8.35726845-4.02387035 15.47642228v39.00058526h-11.45255314v-43.95304005c0-4.95245479-0.92858565-8.97632514-2.78575574-11.45255315-1.85717131-2.476228-4.95245479-3.40481244-9.28585288-3.40481244-3.40481244 0-6.80962609 0.61905669-9.2858541 2.4762268-2.16669904 1.54764235-4.64292705 4.33339809-5.88104043 7.73821174-1.54764235 2.78575574-1.85717131 7.73821174-1.85717131 13.92877993v34.66718717h-11.14302418zM772.4681935 821.0641606c-2.78575574 2.78575574-10.52396749 10.52396749-24.76227637 10.52396749-18.57170698 0-36.83388621-14.85736558-36.83388621-36.21482952 0-21.97652063 17.64312132-36.83388621 36.83388621-36.83388499 13.61925219 0 21.97652063 7.73821174 24.76227637 10.52396749-1.54764235 2.78575574-3.40481244 9.28585409-4.95245478 11.45255192-6.50009714-8.35726845-14.85736558-10.52396749-19.80982159-10.52396749-14.23830889 0-25.69086203 12.07160983-25.69086202 25.69086203s11.45255314 24.76227637 25.69086202 24.76227637c7.11915383 0 14.85736558-3.40481244 19.80982159-11.45255314 2.16669904 6.50009714 4.33339809 10.21443854 4.95245478 12.07160984zM686.72881247 819.8260472h9.90490958v9.90491079h-9.90490958zM143.81590482 733.15808051H111.31541671L60.86227953 829.73095799h29.09567446l8.66679619-19.19076488h53.23889413l8.35726845 19.19076488h31.2623735l-47.66738144-96.57287748zM107.60107532 791.34942944l18.57170696-36.83388621 16.40500794 36.83388621H107.60107532zM362.34299286 769.9919655c-6.80962609-7.11915383-14.23830889-9.90491079-24.76227637-9.90490957-4.33339809 0-8.66679618 0.61905669-11.45255314 1.23811339-6.50009714 1.85717131-14.23830889 6.50009714-18.57170698 10.52396749v-39.00058525h-26.30991872v88.83466573c0 2.16669904 0 4.95245479-0.6190567 7.73821176h26.30991872c0.30952895-1.2381134 0.61905669-2.78575574 0.6190567-4.9524548v-7.11915505c3.0952847 4.33339809 7.73821174 8.35726845 14.54783784 11.45255314 4.02387035 1.85717131 11.14302418 2.78575574 14.54783663 2.78575575 10.52396749 0 19.19076367-3.7143414 25.38133306-9.9049108 5.57151269-6.50009714 8.66679618-14.85736558 8.6667974-26.30991872 0.30952895-10.21443854-2.78575574-18.88123594-8.35726844-25.38133307z m-22.59557733 40.54822761c-2.78575574 3.40481244-7.73821174 4.95245479-13.61925218 4.952456-6.50009714 0-10.52396749-1.54764235-14.23830889-4.952456-2.78575574-3.40481244-4.95245479-8.66679618-4.95245479-14.85736558 0-7.11915383 2.16669904-12.69066653 4.95245479-16.40500794 3.40481244-3.40481244 7.73821174-5.57151269 14.23830889-5.57151269 5.57151269 0 10.52396749 1.85717131 13.61925218 5.57151269 3.40481244 4.33339809 4.95245479 8.35726845 4.9524548 14.85736559 0 7.11915383-1.54764235 12.07160983-4.9524548 16.40500793zM561.06025931 769.9919655c-7.11915383-6.80962609-14.23830889-9.90491079-24.76227516-9.90490957-4.33339809 0-8.66679618 0.61905669-11.45255314 1.23811339-6.50009714 1.85717131-14.23830889 6.50009714-18.57170697 10.52396749v-39.00058525h-26.30991872v88.83466573c0 2.16669904 0 4.95245479-0.6190567 7.73821176h26.3099175c0.30952895-1.2381134 0.61905669-2.78575574 0.61905792-4.9524548v-7.11915505c3.0952847 4.33339809 7.73821174 8.35726845 14.54783662 11.45255314 4.02387035 1.85717131 11.14302418 2.78575574 14.54783784 2.78575575 10.52396749 0 19.19076367-3.7143414 25.69086081-9.9049108 5.57151269-6.50009714 8.35726845-14.85736558 8.35726844-26.30991872 0.30952895-10.21443854-2.476228-18.88123594-8.35726844-25.38133307z m-22.59557611 40.54822761c-2.78575574 3.40481244-7.73821174 4.95245479-13.30972445 4.952456-6.50009714 0-10.52396749-1.54764235-14.23830888-4.952456-2.78575574-3.40481244-4.95245479-8.66679618-4.95245479-14.85736558 0-7.11915383 2.16669904-12.69066653 4.95245479-16.40500794 3.40481244-3.40481244 7.73821174-5.57151269 14.23830888-5.57151269 5.57151269 0 10.52396749 1.85717131 13.61925218 5.57151269 3.40481244 4.33339809 4.95245479 8.35726845 4.95245601 14.85736559-0.30952895 7.11915383-1.85717131 12.07160983-5.26198374 16.40500793zM463.24926843 826.0166166V786.39697343c0-8.35726845-3.7143414-14.85736558-9.28585288-19.19076367-5.57151269-4.33339809-15.47642228-6.50009714-28.47661776-6.50009713h-2.78575696c-12.07160983 0-21.35746272 1.54764235-26.92897541 4.95245478-6.50009714 3.40481244-9.90491079 9.28585409-11.45255194 16.40500794h26.30991751c0.61905669-2.78575574 4.95245479-7.73821174 12.07160984-7.73821054h2.78575696c4.33339809 0 7.11915383 0.92858565 9.28585288 2.78575574 2.16669904 1.85717131 2.78575574 4.95245479 2.78575574 8.66679619v1.23811461h-14.85736558c-9.28585409 0-16.40500793 0.61905669-20.42887706 1.54764235-4.95245479 0.61905669-8.35726845 1.85717131-11.45255315 3.40481243-3.40481244 2.16669904-5.88104044 4.95245479-7.73821174 7.73821175-2.16669904 3.40481244-2.78575574 7.11915383-2.78575574 11.45255192 0 6.50009714 2.16669904 11.45255314 7.11915383 14.8573668 4.95245479 3.40481244 11.45255314 5.57151269 19.80982158 5.57151149 5.57151269 0 10.52396749-0.61905669 15.47642228-2.16669904 5.88104044-1.54764235 13.61925219-5.57151269 15.47642349-9.9049108v1.54764235c0 4.33339809 1.54764235 7.73821174 2.16669904 8.35726845h24.14321846c-0.61905669-0.30952895-1.2381134-1.85717131-1.23811339-3.40481245z m-25.69086202-24.76227637c0 4.95245479-1.54764235 9.28585409-4.33339809 11.45255192-2.78575574 2.16669904-5.26198374 3.40481244-9.59538183 4.33339932-0.92858565 0.30952895-2.78575574 0.30952895-4.64292706 0.30952773-3.40481244 0-6.50009714-0.61905669-8.66679618-1.85717009-1.85717131-1.2381134-3.0952847-3.40481244-3.0952847-6.1905694 0-3.40481244 2.16669904-6.1905694 6.1905694-7.42868278 2.16669904-0.61905669 5.26198374-1.2381134 8.97632514-1.54764236 3.7143414-0.30952895 8.04773949-0.30952895 13.92877992-0.30952895h1.54764236v1.23811461zM661.9665361 826.0166166V786.39697343c0-8.35726845-3.7143414-14.85736558-9.28585409-19.19076367-5.57151269-4.33339809-15.47642228-6.50009714-28.47661778-6.50009713h-2.78575574c-12.07160983 0-20.42887828 1.54764235-26.92897541 4.95245478-6.50009714 3.40481244-9.90491079 9.28585409-11.45255314 16.40500794h26.30991872c0.61905669-2.78575574 4.95245479-7.73821174 12.07160983-7.73821054h2.78575574c4.33339809 0 7.11915383 0.92858565 9.2858541 2.78575574 2.16669904 1.85717131 2.78575574 4.95245479 2.78575575 8.66679619v1.23811461h-14.85736559c-9.28585409 0-16.40500793 0.61905669-20.42887827 1.54764235-4.95245479 0.61905669-8.35726845 1.85717131-11.45255314 3.40481243-3.40481244 2.16669904-5.88104044 4.95245479-7.73821053 7.73821175-2.16669904 3.40481244-2.78575574 7.11915383-2.78575696 11.45255192 0 6.50009714 2.16669904 11.45255314 7.11915504 14.8573668 4.95245479 3.40481244 11.45255314 5.57151269 19.80982159 5.57151149 5.57151269 0 10.52396749-0.61905669 15.47642227-2.16669904 5.88104044-1.54764235 13.30972323-5.57151269 15.47642228-9.9049108v1.54764235c0 4.33339809 1.54764235 7.73821174 2.16669904 8.35726845h24.14321968c-0.30952895-0.30952895-1.2381134-1.85717131-1.23811339-3.40481245z m-25.38133307-24.76227637c0 4.95245479-1.54764235 9.28585409-4.33339931 11.45255192-2.78575574 2.16669904-5.26198374 3.40481244-9.59538183 4.33339932-0.92858565 0.30952895-2.78575574 0.30952895-4.64292705 0.30952773-3.40481244 0-6.50009714-0.61905669-8.66679618-1.85717009-1.85717131-1.2381134-3.0952847-3.40481244-3.0952847-6.1905694 0-3.40481244 2.16669904-6.1905694 6.19056939-7.42868278 2.16669904-0.61905669 4.95245479-1.2381134 8.97632514-1.54764236 3.7143414-0.30952895 8.04773949-0.30952895 13.92877993-0.30952895h1.54764235v1.23811461zM818.5879326 758.84894132c-19.80982158 0-36.21482951 16.40500793-36.2148283 36.83388621 0 19.80982158 16.40500793 36.21482951 36.2148283 36.2148295 19.80982158 0 36.21482951-16.40500793 36.2148295-36.2148295 0-20.73840603-16.40500793-36.83388621-36.2148295-36.83388621z m0 61.59616258c-14.23830889 0-24.76227637-11.45255314-24.76227516-24.76227637 0-14.23830889 10.52396749-25.69086203 24.76227516-25.69086203 13.61925219 0 24.76227637 11.45255314 24.76227637 25.69086203 0 13.30972323-11.14302418 24.76227637-24.76227637 24.76227637z" fill="#FF7300" p-id="7899"></path></svg>