<?xml version="1.0" standalone="no"?><!DOCTYPE svg PUBLIC "-//W3C//DTD SVG 1.1//EN" "http://www.w3.org/Graphics/SVG/1.1/DTD/svg11.dtd"><svg t="1551423815409" class="icon" style="" viewBox="0 0 1024 1024" version="1.1" xmlns="http://www.w3.org/2000/svg" p-id="2071" xmlns:xlink="http://www.w3.org/1999/xlink" width="16" height="16"><defs><style type="text/css"></style></defs><path d="M527.221 885.166c-5.727-3.411-13.729-9.086-20.082-9.086-4.989 0-11.502 4.818-17.083 7.846-5.9 3.207-17.151 4.425-17.151 4.425l2.646-14.56 21.178-14.559 39.891-0.037 4.751 28.836c0.001 0-9.507-0.102-14.149-2.865zM364.596 927.178c-80.67 3.771-147.598-23.619-149.476-61.169-1.883-37.558 61.988-71.059 142.657-74.826 80.67-3.773 147.589 23.618 149.475 61.168 1.885 37.556-61.987 71.055-142.656 74.828zM649.742 927.178c-80.61-3.773-144.442-37.275-142.557-74.828 1.883-37.551 68.757-64.946 149.371-61.168 80.62 3.766 144.446 37.268 142.56 74.826-1.882 37.55-68.757 64.939-149.372 61.169z" fill="#F2B624" p-id="2072"></path><path d="M506.784 877.286c-166.278 0-301.759-109.906-301.759-283.957 0-170.805 134.794-309.29 301.075-309.29s301.076 138.484 301.076 309.29c0.001 172.985-134.109 283.957-300.387 283.957zM860.474 741.279c-21.022 43.295-140.315-122.352-82.709-291.874 0 0 146.087 146.301 82.709 291.874zM154.912 741.266c-65.376-142.861 77.958-293.493 77.958-293.493 58.739 168.522-56.739 336.459-77.958 293.493z" fill="#191919" p-id="2073"></path><path d="M275.519 610.858c0 138.281 91.662 248.362 232.077 248.362 140.425 0 231.099-110.080 231.099-248.362 0-131.876-100.121-232.315-231.591-232.315s-231.585 100.435-231.585 232.315z" fill="#FAFAFB" p-id="2074"></path><path d="M771.729 398.585c8.625 0 15.616 3.396 15.616 7.58s-5.924 24.935-14.551 24.935-16.681-20.753-16.681-24.935 6.99-7.58 15.616-7.58zM241.771 399.694c8.476 0 15.347 3.788 15.347 8.463s-6.773 25.607-15.25 25.607-15.444-20.931-15.444-25.607c0.001-4.669 6.871-8.463 15.348-8.463z" fill="#D32F19" p-id="2075"></path><path d="M780.841 358.574c-4.322 154.143-47.081 192.939-274.724 192.939s-274.882-36.897-274.882-191.102c0-168.338 122.844-289.555 274.361-289.555 151.532 0 279.476 136.7 275.247 287.717z" fill="#191919" p-id="2076"></path><path d="M404.14 722.363c-22.275 0.588-74.335-6.052-87.806-20.885-5.649-6.214-6.756-10.097-6.756-24.364 0-81.085 16.889-139.225 16.889-139.225 54.233-61.062 94.622 27.194 94.622 27.194v140.551c0 10.438-8.127 16.487-16.945 16.723zM507.104 609.82c-138.85 0-271.114-69.173-305.469-121.55 1.468-3.209 17.927-61.33 24.742-81.803 14.213 29.934 94.57 120.899 280.726 120.899 186.16 0 269.829-100.396 279.872-124.313 10.22 29.873 22.356 79.161 23.888 85.213-54.092 71.089-181.151 121.551-303.762 121.551z" fill="#D32F19" p-id="2077"></path><path d="M386.87 282.587c-1.551-40.304 20.283-73.987 48.743-75.237 28.47-1.25 52.795 30.414 54.336 70.714 1.551 40.293-20.266 73.971-48.733 75.228-28.483 1.242-52.816-30.423-54.347-70.705zM524.373 280.448c0-40.305 23.087-72.983 51.556-72.983s51.553 32.679 51.553 72.983c0 40.3-23.086 72.97-51.553 72.97-28.47 0-51.556-32.669-51.556-72.97z" fill="#FFFFFF" p-id="2078"></path><path d="M630.55 457.715c-60.295 31.318-75.971 49.503-124.435 49.532-47.417 0.027-64.144-18.214-124.437-49.532-94.852-49.26-52.572-53.396 7.761-71.356 35.778-10.644 84.991-15.858 116.681-15.858s80.897 5.211 116.672 15.858c60.331 17.956 102.614 22.094 7.755 71.356z" fill="#EFB024" p-id="2079"></path><path d="M653.248 413.378s-18.683 26.348-69.536 44.978c-26.63 9.76-37.776 32.809-76.605 32.809s-49.806-22.931-76.393-32.809c-50.169-18.638-69.548-44.978-69.548-44.978 11.291 8.349 56.228 41.589 145.941 41.589 89.715 0 134.855-33.244 146.144-41.589z" fill="#8A3322" p-id="2080"></path><path d="M594.454 301.938c-3.882 0-7.051-2.926-7.051-6.551v-1.518c0-17.074-6.962-30.439-15.882-30.439-8.913 0-15.903 13.363-15.903 30.439v1.518c0 3.623-3.145 6.551-7.051 6.551-3.882 0-7.051-2.926-7.051-6.551v-1.518c0-25.645 12.345-43.564 30.003-43.564 17.665 0 29.981 17.919 29.981 43.564v1.518c-0.001 3.623-3.168 6.551-7.053 6.551zM472.791 281.438c1.498 18.961-8.829 35.819-23.082 37.661-14.231 1.824-27.007-12.039-28.506-30.999-1.518-18.961 8.81-35.819 23.041-37.661 14.253-1.824 27.030 12.039 28.548 30.999z" fill="#191919" p-id="2081"></path><path d="M464.176 279.723c0.194 7.095-3.451 13.19-8.199 13.558-4.708 0.412-8.699-5.011-8.918-12.147-0.219-7.070 3.471-13.19 8.199-13.603 4.727-0.37 8.721 5.074 8.918 12.193z" fill="#FFFFFF" p-id="2082"></path></svg>